<?xml version="1.0" encoding="utf-8"?>
<!-- Generator: Adobe Illustrator 19.1.0, SVG Export Plug-In . SVG Version: 6.00 Build 0)  -->
<svg version="1.1" id="Layer_1" xmlns="http://www.w3.org/2000/svg" xmlns:xlink="http://www.w3.org/1999/xlink" x="0px" y="0px"
	 viewBox="0 0 328 121" style="enable-background:new 0 0 328 121;" xml:space="preserve">
<style type="text/css">
	.st0{clip-path:url(#SVGID_2_);}
	.st1{clip-path:url(#SVGID_4_);fill:#B2B3B6;}
	.st2{clip-path:url(#SVGID_6_);}
	.st3{clip-path:url(#SVGID_6_);fill:#54BA5D;}
	.st4{clip-path:url(#SVGID_6_);fill:#FFFFFF;}
</style>
<g>
	<defs>
		<rect id="SVGID_1_" x="0.1" y="1" width="327.4" height="119.9"/>
	</defs>
	<clipPath id="SVGID_2_">
		<use xlink:href="#SVGID_1_"  style="overflow:visible;"/>
	</clipPath>
	<g class="st0">
		<defs>
			<rect id="SVGID_3_" width="328" height="121"/>
		</defs>
		<clipPath id="SVGID_4_">
			<use xlink:href="#SVGID_3_"  style="overflow:visible;"/>
		</clipPath>
		<path class="st1" d="M298.9,1H28.5c-1.1,0-2.2,0-3.3,0c-0.9,0-1.8,0-2.8,0c-2,0-4,0.2-6,0.5c-2,0.4-3.9,1-5.7,1.9
			C8.9,4.4,7.3,5.6,5.9,7s-2.6,3.1-3.5,4.9c-0.9,1.8-1.5,3.7-1.9,5.7s-0.5,4-0.5,6c0,0.9,0,1.8,0,2.8c0,1.1,0,2.2,0,3.3v62.8
			c0,1.1,0,2.2,0,3.3c0,0.9,0,1.8,0,2.8c0.1,2,0.2,4,0.5,6c0.4,2,0.9,3.9,1.9,5.7c0.9,1.8,2.1,3.4,3.5,4.8s3.1,2.6,4.9,3.5
			s3.7,1.5,5.7,1.9s4,0.5,6,0.5c0.9,0,1.8,0,2.8,0c1.1,0,2.2,0,3.3,0h270.3c1.1,0,2.2,0,3.3,0c0.9,0,1.9,0,2.8,0c2-0.1,4-0.2,6-0.5
			c2-0.4,3.9-1,5.7-1.9c1.8-0.9,3.4-2.1,4.8-3.5s2.6-3.1,3.5-4.8c0.9-1.8,1.5-3.7,1.9-5.7s0.5-4,0.6-6c0-0.9,0-1.8,0-2.8
			c0-1.1,0-2.2,0-3.3V29.6c0-1.1,0-2.2,0-3.3c0-0.9,0-1.8,0-2.8c-0.1-2-0.2-4-0.6-6c-0.3-2-0.9-3.9-1.9-5.7
			c-0.9-1.8-2.1-3.4-3.5-4.9c-1.4-1.4-3.1-2.6-4.8-3.5c-1.8-0.9-3.7-1.5-5.7-1.9S307,1,305,1c-0.9,0-1.9,0-2.8,0
			C301.1,1,300,1,298.9,1"/>
	</g>
</g>
<g>
	<defs>
		<rect id="SVGID_5_" width="328" height="121"/>
	</defs>
	<clipPath id="SVGID_6_">
		<use xlink:href="#SVGID_5_"  style="overflow:visible;"/>
	</clipPath>
	<path class="st2" d="M25.2,118.3c-0.9,0-1.8,0-2.7,0c-1.7,0-3.7-0.1-5.6-0.5c-1.8-0.3-3.5-0.9-5-1.6c-1.6-0.8-3-1.8-4.2-3.1
		c-1.2-1.2-2.3-2.6-3.1-4.2c-0.8-1.5-1.3-3.1-1.6-5c-0.4-2-0.5-4.1-0.5-5.6c0-0.6,0-2.7,0-2.7V26.3c0,0,0-2.1,0-2.7
		C2.5,22,2.6,20,3,18c0.3-1.8,0.9-3.5,1.6-5c0.8-1.6,1.8-3,3-4.2c1.2-1.2,2.7-2.3,4.2-3.1c1.5-0.8,3.2-1.3,5-1.6
		c2-0.4,4.1-0.5,5.6-0.5h282.3c1.5,0,3.6,0.1,5.6,0.5c1.8,0.3,3.4,0.9,5,1.6c1.5,0.8,2.9,1.8,4.2,3c1.2,1.2,2.3,2.6,3.1,4.2
		c0.8,1.5,1.3,3.2,1.6,4.9c0.3,1.9,0.5,3.8,0.5,5.7c0,0.8,0,1.8,0,2.7c0,1.1,0,2.2,0,3.3v62.8c0,1.1,0,2.2,0,3.2s0,1.9,0,2.8
		c-0.1,1.8-0.2,3.7-0.5,5.6c-0.3,1.8-0.8,3.5-1.6,5c-0.8,1.6-1.8,3-3,4.2c-1.2,1.3-2.6,2.3-4.2,3.1c-1.6,0.8-3.1,1.3-5,1.6
		c-1.9,0.4-3.9,0.4-5.6,0.5c-0.9,0-1.8,0-2.7,0H25.2"/>
	<path class="st3" d="M63.9,26.6C44.6,26.6,29,42.2,29,61.5s15.6,34.9,34.9,34.9s34.9-15.6,34.9-34.9C98.7,42.2,83.1,26.6,63.9,26.6
		 M79.8,76.8c-0.6,1-2,1.3-3,0.7c-8.2-5-18.5-6.1-30.6-3.4c-1.2,0.3-2.3-0.5-2.6-1.6c-0.3-1.2,0.5-2.3,1.6-2.6
		c13.3-3,24.7-1.7,33.9,3.9C80.2,74.5,80.5,75.8,79.8,76.8z M84.1,67.4c-0.8,1.3-2.5,1.7-3.7,0.9c-9.4-5.8-23.7-7.4-34.7-4.1
		c-1.4,0.4-3-0.4-3.4-1.8c-0.4-1.4,0.4-3,1.8-3.4c12.7-3.8,28.4-2,39.2,4.6C84.5,64.4,84.9,66.1,84.1,67.4z M84.5,57.5
		c-11.2-6.7-29.8-7.3-40.5-4c-1.7,0.5-3.6-0.5-4.1-2.2c-0.5-1.7,0.4-3.5,2.2-4.1c12.3-3.7,32.8-3,45.7,4.7c1.5,0.9,2.1,2.9,1.1,4.5
		C88,57.9,86,58.4,84.5,57.5z"/>
	<path class="st3" d="M124.6,63.9c-7.5-1.8-8.8-3-8.8-5.7c0-2.5,2.3-4.2,5.8-4.2c3.4,0,6.7,1.3,10.2,3.9c0.1,0.1,0.2,0.1,0.4,0.1
		c0.1,0,0.2-0.1,0.3-0.2l3.7-5.2c0.2-0.2,0.1-0.5-0.1-0.7c-4.2-3.4-8.9-5-14.4-5c-8.1,0-13.7,4.9-13.7,11.8
		c0,7.5,4.9,10.1,13.3,12.1c7.2,1.7,8.4,3,8.4,5.5c0,2.7-2.4,4.4-6.4,4.4c-4.4,0-7.9-1.5-11.9-4.9c-0.1-0.1-0.2-0.1-0.4-0.1
		c-0.1,0-0.3,0.1-0.3,0.2l-4.1,4.9c-0.2,0.2-0.2,0.5,0,0.7c4.6,4.1,10.4,6.3,16.5,6.3c8.7,0,14.4-4.8,14.4-12.1
		C137.5,69.5,133.8,66.1,124.6,63.9"/>
	<path class="st3" d="M157.2,56.5c-3.8,0-6.9,1.5-9.4,4.5v-3.4c0-0.3-0.2-0.5-0.5-0.5h-6.7c-0.3,0-0.5,0.2-0.5,0.5v38.1
		c0,0.3,0.2,0.5,0.5,0.5h6.7c0.3,0,0.5-0.2,0.5-0.5v-12c2.6,2.9,5.7,4.3,9.4,4.3c7,0,14.1-5.4,14.1-15.7
		C171.4,61.9,164.2,56.5,157.2,56.5 M163.5,72.2c0,5.3-3.2,8.9-7.9,8.9c-4.6,0-8-3.8-8-8.9c0-5.1,3.5-8.9,8-8.9
		C160.2,63.3,163.5,67,163.5,72.2z"/>
	<path class="st3" d="M189.6,56.5c-9,0-16.1,7-16.1,15.9c0,8.8,7,15.7,16,15.7c9.1,0,16.2-6.9,16.2-15.8
		C205.6,63.4,198.6,56.5,189.6,56.5 M189.6,81.2c-4.8,0-8.4-3.9-8.4-9c0-5.1,3.5-8.9,8.3-8.9s8.5,3.9,8.5,9
		C198,77.5,194.4,81.2,189.6,81.2z"/>
	<path class="st3" d="M225,57.1h-7.4v-7.5c0-0.3-0.2-0.5-0.5-0.5h-6.7c-0.3,0-0.5,0.2-0.5,0.5v7.5h-3.2c-0.3,0-0.5,0.2-0.5,0.5v5.8
		c0,0.3,0.2,0.5,0.5,0.5h3.2v14.9c0,6,3,9.1,8.9,9.1c2.4,0,4.4-0.5,6.3-1.6c0.2-0.1,0.2-0.3,0.2-0.4v-5.5c0-0.2-0.1-0.3-0.2-0.4
		c-0.1-0.1-0.3-0.1-0.5,0c-1.3,0.7-2.5,1-3.9,1c-2.2,0-3.1-1-3.1-3.2v-14h7.4c0.3,0,0.5-0.2,0.5-0.5v-5.8
		C225.4,57.3,225.2,57.1,225,57.1"/>
	<path class="st3" d="M250.7,57.1v-0.9c0-2.7,1-3.9,3.4-3.9c1.4,0,2.5,0.3,3.8,0.7c0.2,0,0.3,0,0.4-0.1c0.1-0.1,0.2-0.2,0.2-0.4
		v-5.7c0-0.2-0.1-0.4-0.3-0.5c-1.3-0.4-3-0.8-5.6-0.8c-6.2,0-9.5,3.5-9.5,10.1V57h-3.2c-0.3,0-0.5,0.2-0.5,0.5v5.8
		c0,0.3,0.2,0.5,0.5,0.5h3.2v23c0,0.3,0.2,0.5,0.5,0.5h6.7c0.3,0,0.5-0.2,0.5-0.5v-23h6.3l9.6,23c-1.1,2.4-2.2,2.9-3.6,2.9
		c-1.2,0-2.4-0.4-3.7-1c-0.1-0.1-0.3-0.1-0.4,0c-0.1,0-0.2,0.1-0.3,0.3l-2.3,5c-0.1,0.2,0,0.5,0.2,0.6c2.4,1.3,4.5,1.8,7.2,1.8
		c5,0,7.7-2.3,10.1-8.5l11.6-30.1c0.1-0.2,0-0.3-0.1-0.5c-0.1-0.1-0.2-0.2-0.4-0.2h-7c-0.2,0-0.4,0.1-0.5,0.3l-7.2,20.4l-7.8-20.5
		c-0.1-0.2-0.3-0.3-0.5-0.3L250.7,57.1L250.7,57.1"/>
	<path class="st3" d="M235.8,57.1h-6.7c-0.3,0-0.5,0.2-0.5,0.5v29.3c0,0.3,0.2,0.5,0.5,0.5h6.7c0.3,0,0.5-0.2,0.5-0.5V57.6
		C236.3,57.3,236,57.1,235.8,57.1"/>
	<path class="st3" d="M232.4,43.8c2.7,0,4.8,2.1,4.8,4.8s-2.1,4.8-4.8,4.8s-4.8-2.1-4.8-4.8S229.7,43.8,232.4,43.8"/>
	<path class="st3" d="M291.2,66.5c-2.7,0-4.7-2.1-4.7-4.7c0-2.6,2.1-4.7,4.7-4.7c2.7,0,4.7,2.1,4.7,4.7
		C296,64.3,293.9,66.5,291.2,66.5 M291.3,57.5c-2.4,0-4.2,1.9-4.2,4.3s1.8,4.3,4.2,4.3c2.4,0,4.3-1.9,4.3-4.3
		C295.5,59.4,293.7,57.5,291.3,57.5z M292.3,62.2l1.3,1.9h-1.1l-1.2-1.7h-1v1.7h-0.9v-5h2.2c1.2,0,1.9,0.6,1.9,1.6
		C293.5,61.5,293,62,292.3,62.2z M291.5,60h-1.2v1.6h1.2c0.6,0,1-0.3,1-0.8S292.1,60,291.5,60z"/>
	<path class="st4" d="M119.4,36h-10.5V16.8h2.4v17.1h8C119.4,33.9,119.4,36,119.4,36"/>
	<path class="st4" d="M126.3,18c0,0.5-0.2,0.9-0.5,1.2c-0.3,0.3-0.7,0.4-1.2,0.4s-0.8-0.2-1.1-0.5c-0.3-0.3-0.4-0.7-0.4-1.1
		s0.2-0.8,0.5-1.1c0.3-0.3,0.7-0.5,1.1-0.5c0.5,0,0.9,0.1,1.2,0.4C126.2,17.1,126.3,17.6,126.3,18 M123.5,22.2h2.5V36h-2.5V22.2z"/>
	<path class="st4" d="M139.4,32.1c0,1.2-0.5,2.2-1.4,3c-0.9,0.7-2.2,1.1-3.7,1.1s-2.7-0.3-3.8-0.9l0.6-1.9c1,0.6,2.1,1,3.2,1
		c1.8,0,2.6-0.7,2.6-2.1c0-0.6-0.2-1.1-0.6-1.5c-0.4-0.4-1-0.7-1.9-1.1c-2.4-0.9-3.6-2.2-3.6-3.9c0-1.1,0.4-2.1,1.3-2.9
		c0.9-0.8,2-1.2,3.4-1.2c1.3,0,2.4,0.3,3.3,0.8l-0.6,1.8c-0.8-0.5-1.8-0.8-2.8-0.8c-0.7,0-1.3,0.2-1.7,0.5c-0.4,0.4-0.6,0.8-0.6,1.4
		c0,0.5,0.2,1,0.6,1.3c0.3,0.3,1,0.7,1.9,1C138.2,28.9,139.4,30.3,139.4,32.1"/>
	<path class="st4" d="M150.5,24.1H147v7.5c0,1.8,0.6,2.7,1.9,2.7c0.6,0,1-0.1,1.4-0.2l0.1,1.9c-0.6,0.2-1.3,0.3-2.2,0.3
		c-1.2,0-2.1-0.3-2.7-1c-0.6-0.7-1-1.9-1-3.5v-7.6h-2.1v-1.9h2.1v-2.5l2.4-0.7v3.3h3.5v1.7H150.5"/>
	<path class="st4" d="M165.6,28.3c0,0.5,0,0.9-0.1,1.2H156c0,1.6,0.5,2.8,1.4,3.7c0.8,0.7,1.9,1.1,3.2,1.1c1.4,0,2.6-0.2,3.7-0.7
		l0.4,1.8c-1.2,0.6-2.7,0.8-4.5,0.8c-2.1,0-3.7-0.6-4.9-1.9c-1.2-1.3-1.8-2.9-1.8-5c0-2.1,0.6-3.9,1.7-5.3c1.1-1.4,2.7-2.1,4.6-2.1
		c2,0,3.4,0.7,4.4,2.2C165.2,25.3,165.6,26.7,165.6,28.3 M163.2,27.7c0-1-0.2-1.9-0.7-2.7c-0.6-0.9-1.5-1.4-2.7-1.4
		c-1.1,0-2.1,0.5-2.7,1.4c-0.6,0.7-0.9,1.6-1,2.7H163.2z"/>
	<path class="st4" d="M181.6,36h-2.5v-8c0-2.7-1-4-3.1-4c-1,0-1.8,0.4-2.5,1.1c-0.7,0.7-1,1.6-1,2.6V36H170V25.9
		c0-1.1,0-2.4-0.1-3.7h2.2l0.1,2.2h0.1c0.4-0.7,0.9-1.3,1.7-1.7c0.8-0.5,1.8-0.8,2.8-0.8c1.2,0,2.2,0.4,3.1,1.1
		c1.1,1,1.7,2.6,1.7,4.6V36"/>
	<path class="st4" d="M207.5,29c0,2.1-0.6,3.8-1.7,5.2c-1.2,1.4-2.9,2.1-5,2.1c-2,0-3.6-0.7-4.8-2.1c-1.1-1.3-1.7-3-1.7-5
		c0-2.1,0.6-3.8,1.7-5.2c1.2-1.4,2.9-2.1,5-2.1c2,0,3.6,0.7,4.8,2.1C206.9,25.2,207.5,26.9,207.5,29 M205,29c0-1.4-0.3-2.6-1-3.6
		c-0.7-1.2-1.8-1.7-3.1-1.7c-1.3,0-2.4,0.6-3.1,1.7c-0.6,1-1,2.2-1,3.6s0.3,2.6,1,3.6c0.7,1.2,1.8,1.7,3.1,1.7
		c1.3,0,2.3-0.6,3.1-1.8C204.6,31.6,205,30.4,205,29z"/>
	<path class="st4" d="M223.6,36h-2.5v-8c0-2.7-1-4-3.1-4c-1,0-1.8,0.4-2.5,1.1c-0.7,0.7-1,1.6-1,2.6V36H212V25.9
		c0-1.1,0-2.4-0.1-3.7h2.2l0.1,2.2h0.1c0.4-0.7,0.9-1.3,1.7-1.7c0.8-0.5,1.8-0.8,2.8-0.8c1.2,0,2.2,0.4,3.1,1.1
		c1.1,1,1.7,2.6,1.7,4.6V36"/>
</g>
</svg>
