<?xml version="1.0" encoding="utf-8"?>
<svg version="1.1" xmlns="http://www.w3.org/2000/svg" viewBox="0 0 1148.52 181.86">
	<g id="surrender-to-the-music" fill="none" stroke="#daa520" stroke-linecap="round" stroke-width="4" transform="translate(-18.85 -20.66)">
		<path id="s" d="M122.5,49.3c0,0,7.5-1.9,12-5.1c4.6-3.3,16.8-16.3,11.2-20.7c-6.6-5.2-73.4,12.9-71.8,43.4c2,27.3,61.1,37.6,57.5,65.1c-4.7,35.2-54.8,74.3-90.6,67.7c-40.9-7.5-5.9-42.1-5.9-42.1">
			<set attributeName="visibility" to="hidden"/>
			<set id="showS" attributeName="visibility" to="visible" begin="0.5s"/>
			<set attributeName="stroke-dasharray" to="401.835" begin="drawS.begin" end="drawS.end"/>
			<animate id="drawS" attributeName="stroke-dashoffset" begin="showS.begin" dur="0.2811547s" from="401.835" to="0"/>
		</path>
		<path id="urre" d="M126.26,170.29s16-8.82,22-20.86,10.49-29.35,8.12-30.68-13.62,23.54-7.7,39.8,19.77,18.5,28.46,10,16-28.53,11.75-28.93-10.13,22.08,1.35,32.84,19.83-2.42,22.3-11.27,1.41-32.89-7.17-28.66c-6.13,3,3.18,5.66,11.78,4.17s10.83-4.95,10.1-5.37-9.91,11.07-5.86,21.95,17.89,16.28,23.59,3.6,6.6-21.52,3.66-23.22-6.15,2.11-.73,3.25,13.06-3.82,12.39-5.45-8.07,1-7.26,17.78,20.15,16.87,28.41,10.17c7.64-6.2,18.05-15.35,22.07-27.71s.2-18.23-9-13.8-15.2,23-11.4,32.56,12.51,13.89,22.4,15.58a47.25,47.25,0,0,0,19.73-.92">
			<set attributeName="visibility" to="hidden"/>
			<set id="showUrre" attributeName="visibility" to="visible" begin="drawS.end"/>
			<set attributeName="stroke-dasharray" to="614.236" begin="drawUrre.begin" end="drawUrre.end"/>
			<animate id="drawUrre" attributeName="stroke-dashoffset" begin="showUrre.begin" dur="0.4297669s" from="614.236" to="0"/>
		</path>
		<path id="n" d="M330.15,163.3s-1.7-11,1.08-20.74,9.66-16,14.5-14.33c5.65,2,3.85,15.92,4,22.56s4.12,13.94,4.12,13.94">
			<set attributeName="visibility" to="hidden"/>
			<set id="showN" attributeName="visibility" to="visible" begin="drawUrre.end"/>
			<set attributeName="stroke-dasharray" to="81.786" begin="drawN.begin" end="drawN.end"/>
			<animate id="drawN" attributeName="stroke-dashoffset" begin="showN.begin" dur="0.05722379s" from="81.786" to="0"/>
		</path>
		<path id="der" d="M384.1,129.29s-6.78-3.88-11-.22-8.93,14.39-8.45,22.3,5.8,18.69,14.16,13.78,16.59-46.29,17.11-64.95-1.44-57-4.94-13.47-4.58,69,1.6,76.22,17.38-7.13,20.56-20.66.53-19.71-3.08-15.83-10.52,15.44-5.42,27.38,15.35,15.43,23.19,9.45c8.31-6.33,13.78-14.68,14.75-19.11s1.26-8.37-.79-9.6-3.5,3.57,4.55,6.3,8.55-2.38,6-2.71-5.9,8.56-5.93,14.88,1.15,11.13,5.53,11.2c3.7.06,4.6-2.66,4.6-2.66">
			<set attributeName="visibility" to="hidden"/>
			<set id="showDer" attributeName="visibility" to="visible" begin="drawN.end"/>
			<set attributeName="stroke-dasharray" to="465.38" begin="drawDer.begin" end="drawDer.end"/>
			<animate id="drawDer" attributeName="stroke-dashoffset" begin="showDer.begin" dur="0.3256157s" from="465.38" to="0"/>
		</path>
		<path id="t1" d="M561.29,40.69S558.66,74.91,559,108c.39,33.92,2.84,60.89,2.84,60.89">
			<set attributeName="visibility" to="hidden"/>
			<set id="showT1" attributeName="visibility" to="visible" begin="drawDer.end+0.1s"/>
			<set attributeName="stroke-dasharray" to="128.382" begin="drawT1.begin" end="drawT1.end"/>
			<animate id="drawT1" attributeName="stroke-dashoffset" begin="showT1.begin" dur="0.08982594s" from="128.382" to="0"/>
		</path>
		<path id="o" d="M543.92,125.35s9.26,16.51,29.57,14.78c18.35-1.56,27.58-12.82,25.7-15.83s-14.53-2.29-23,9.36-8.65,20,3.61,20.5,26-11.15,28.33-15.8c2.54-5.14-1.16-9.43-5.82-9.3s-11.39,4-8.77,11.07c2,5.38,10.67,2.78,10.67,2.78">
			<set attributeName="visibility" to="hidden"/>
			<set id="showO" attributeName="visibility" to="visible" begin="drawT1.end"/>
			<set attributeName="stroke-dasharray" to="198.75" begin="drawO.begin" end="drawO.end"/>
			<animate id="drawO" attributeName="stroke-dashoffset" begin="showO.begin" dur="0.1390608s" from="198.75" to="0"/>
		</path>
		<path id="t2" d="M670.64,44.7s.58,30.47,4.4,63.8,5.45,61.75,5.45,61.75">
			<set attributeName="visibility" to="hidden"/>
			<set id="showT2" attributeName="visibility" to="visible" begin="drawO.end+0.1s"/>
			<set attributeName="stroke-dasharray" to="125.973" begin="drawT2.begin" end="drawT2.end"/>
			<animate id="drawT2" attributeName="stroke-dashoffset" begin="showT2.begin" dur="0.08814042s" from="125.973" to="0"/>
		</path>
		<path id="he" d="M661.38,120.76s-12.37,6.36,8.49,8.16,47.79-26.73,58.43-45.65,21-33,10.42-35.89S714.59,65.59,706,95.06s-4.31,61.46,9.28,61.89,54.4-23.39,56.29-21.69-2.94,17,2,20,20.38-7.16,27-21.47,3.68-17.06-5.7-17.42-13.56,13-12.56,22.49,8.09,24.92,24.28,33.23a58.82,58.82,0,0,0,31.27,6.39">
			<set attributeName="visibility" to="hidden"/>
			<set id="showHe" attributeName="visibility" to="visible" begin="drawT2.end"/>
			<set attributeName="stroke-dasharray" to="514.115" begin="drawHe.begin" end="drawHe.end"/>
			<animate id="drawHe" attributeName="stroke-dashoffset" begin="showHe.begin" dur="0.3597145s" from="514.115" to="0"/>
		</path>
		<path id="mus" d="M901.4,158.72s1.82-15.49,3.51-20.46,5-15.47,6.84-15.1,5.43,11.61,5.72,16.2.24,14.07,3.72,13.93,24.72-24.61,28.52-26.49,8.72-3.91,9.71,3.29-4.78,18-2.5,21.37,15,4.79,23.6-5,11.63-16.38,8.32-17.51-10.06,18.76-5.72,27.76,14.16,5.73,18.1-5.87,10-21.69,7.23-21.31,1.86,21.75,13.78,24.74,20.28-7.64,24.58-13.31,10.85-18,9-18.06c-5.38-.11,10.07,16.16,11.76,27.68s-2.78,22.49-12.95,24.05-13.74-2-12.27-4.78a6.5,6.5,0,0,1,5.08-3.6">
			<set attributeName="visibility" to="hidden"/>
			<set id="showMus" attributeName="visibility" to="visible" begin="drawHe.end+0.1s"/>
			<set attributeName="stroke-dasharray" to="436.727" begin="drawMus.begin" end="drawMus.end"/>
			<animate id="drawMus" attributeName="stroke-dashoffset" begin="showMus.begin" dur="0.3055679s" from="436.727" to="0"/>
		</path>
		<path id="i" d="M1082.61,153.49s7.83-9.58,7.63-12.37-3.2-1.68-4.06,1.37-2.72,14-1.5,18.39,3.43,7.85,5.85,9.46a8.51,8.51,0,0,0,3.59,1.35">
			<set attributeName="visibility" to="hidden"/>
			<set id="showI" attributeName="visibility" to="visible" begin="drawMus.end"/>
			<set attributeName="stroke-dasharray" to="55.07" begin="drawI.begin" end="drawI.end"/>
			<animate id="drawI" attributeName="stroke-dashoffset" begin="showI.begin" dur="0.03853122s" from="55.07" to="0"/>
		</path>
		<path id="c" d="M1149.6,130.2a21.11,21.11,0,0,0-23.5,3.91c-7.91,7.32-10.47,13.74-8.65,21.22s12,12.81,21,16.25,18.49,2.7,22.21,1.06a8.55,8.55,0,0,0,4.69-4.88">
			<set attributeName="visibility" to="hidden"/>
			<set id="showC" attributeName="visibility" to="visible" begin="drawI.end"/>
			<set attributeName="stroke-dasharray" to="106.643" begin="drawC.begin" end="drawC.end"/>
			<animate id="drawC" attributeName="stroke-dashoffset" begin="showC.begin" dur="0.07461566s" from="106.643" to="0"/>
		</path>
		<path id="iDot" d="M1103.6,91.1a22.2,22.2,0,0,0,8.76.51c4.6-.73,6.24-1.93,6.24-1.93">
			<set attributeName="visibility" to="hidden"/>
			<set id="showIDot" attributeName="visibility" to="visible" begin="drawC.end+0.1s"/>
			<set attributeName="stroke-dasharray" to="15.411" begin="drawIDot.begin" end="drawIDot.end"/>
			<animate id="drawIDot" attributeName="stroke-dashoffset" begin="showIDot.begin" dur="0.01078272s" from="15.411" to="0"/>
		</path>
	</g>
</svg>
