<svg id="Layer_1" data-name="Layer 1" xmlns="http://www.w3.org/2000/svg" viewBox="0 0 356.1 125.46"><defs><style>.cls-1{fill:#0a0203;stroke:#939598;stroke-miterlimit:10;stroke-width:2px;}.cls-2,.cls-4{fill:#fff;}.cls-3,.cls-5{fill:#f8991d;}.cls-3,.cls-4{fill-rule:evenodd;}</style></defs><title>AmazonMusic_AvailableAt</title><path class="cls-1" d="M483.29,440.21c0,9.59-7.51,17.37-16.78,17.37H146c-9.27,0-16.78-7.77-16.78-17.37V351.48c0-9.59,7.52-17.36,16.78-17.36H466.51c9.27,0,16.78,7.77,16.78,17.36Z" transform="translate(-128.2 -333.12)"/><path class="cls-2" d="M184.58,374.06h-4.15l-1.65-4.29h-7.55l-1.56,4.29h-4L173,355.18h4Zm-7-7.47-2.6-7-2.55,7Z" transform="translate(-128.2 -333.12)"/><path class="cls-2" d="M189.36,374.06l-5.51-13.68h3.8l2.58,7,.75,2.33q.3-.89.37-1.17.18-.58.39-1.16l2.6-7H198l-5.43,13.68Z" transform="translate(-128.2 -333.12)"/><path class="cls-2" d="M203,364.56l-3.28-.59a5.12,5.12,0,0,1,1.91-2.94,7,7,0,0,1,4-1,8.67,8.67,0,0,1,3.61.57,3.6,3.6,0,0,1,1.67,1.46,7.46,7.46,0,0,1,.48,3.24l0,4.22a14.64,14.64,0,0,0,.17,2.66,7.74,7.74,0,0,0,.65,1.83h-3.58q-.14-.36-.35-1.07c-.06-.21-.1-.36-.13-.43a6.52,6.52,0,0,1-2,1.35,5.69,5.69,0,0,1-2.25.45,4.66,4.66,0,0,1-3.33-1.15,3.81,3.81,0,0,1-1.22-2.9,3.89,3.89,0,0,1,.55-2.07,3.61,3.61,0,0,1,1.55-1.39,12.12,12.12,0,0,1,2.88-.84,19.68,19.68,0,0,0,3.52-.89v-.36a1.87,1.87,0,0,0-.52-1.49,3.09,3.09,0,0,0-1.94-.44,2.59,2.59,0,0,0-1.51.38A2.64,2.64,0,0,0,203,364.56Zm4.84,2.94q-.7.23-2.2.55a6.63,6.63,0,0,0-2,.63,1.51,1.51,0,0,0-.71,1.27,1.77,1.77,0,0,0,.57,1.31,2,2,0,0,0,1.44.55,3.14,3.14,0,0,0,1.87-.64,2.27,2.27,0,0,0,.86-1.2,7.16,7.16,0,0,0,.14-1.76Z" transform="translate(-128.2 -333.12)"/><path class="cls-2" d="M214.93,358.53v-3.35h3.62v3.35Zm0,15.53V360.38h3.62v13.68Z" transform="translate(-128.2 -333.12)"/><path class="cls-2" d="M222.26,374.06V355.18h3.62v18.88Z" transform="translate(-128.2 -333.12)"/><path class="cls-2" d="M232.29,364.56,229,364a5.12,5.12,0,0,1,1.91-2.94,7,7,0,0,1,4-1,8.67,8.67,0,0,1,3.61.57,3.6,3.6,0,0,1,1.67,1.46,7.46,7.46,0,0,1,.48,3.24l0,4.22a14.65,14.65,0,0,0,.17,2.66,7.74,7.74,0,0,0,.65,1.83H237.9q-.14-.36-.35-1.07c-.06-.21-.1-.36-.13-.43a6.52,6.52,0,0,1-2,1.35,5.69,5.69,0,0,1-2.25.45,4.66,4.66,0,0,1-3.33-1.15,3.81,3.81,0,0,1-1.22-2.9,3.89,3.89,0,0,1,.55-2.07,3.61,3.61,0,0,1,1.55-1.39,12.12,12.12,0,0,1,2.88-.84,19.68,19.68,0,0,0,3.52-.89v-.36a1.87,1.87,0,0,0-.52-1.49,3.09,3.09,0,0,0-1.94-.44,2.59,2.59,0,0,0-1.51.38A2.64,2.64,0,0,0,232.29,364.56Zm4.84,2.94q-.7.23-2.2.55a6.63,6.63,0,0,0-2,.63,1.51,1.51,0,0,0-.71,1.27,1.77,1.77,0,0,0,.57,1.31,2,2,0,0,0,1.44.55,3.14,3.14,0,0,0,1.87-.64A2.27,2.27,0,0,0,237,370a7.16,7.16,0,0,0,.14-1.76Z" transform="translate(-128.2 -333.12)"/><path class="cls-2" d="M244.1,374.06V355.18h3.62V362a5.12,5.12,0,0,1,4-1.91,5.33,5.33,0,0,1,4.13,1.81,7.49,7.49,0,0,1,1.64,5.2,7.91,7.91,0,0,1-1.67,5.4,5.2,5.2,0,0,1-4.05,1.89,5,5,0,0,1-2.31-.59,5.52,5.52,0,0,1-2-1.73v2Zm3.59-7.13a5.81,5.81,0,0,0,.67,3.14,2.86,2.86,0,0,0,2.5,1.44,2.56,2.56,0,0,0,2-1,5,5,0,0,0,.84-3.23,5.34,5.34,0,0,0-.85-3.38,2.69,2.69,0,0,0-2.18-1,2.72,2.72,0,0,0-2.16,1A4.64,4.64,0,0,0,247.69,366.93Z" transform="translate(-128.2 -333.12)"/><path class="cls-2" d="M260.37,374.06V355.18H264v18.88Z" transform="translate(-128.2 -333.12)"/><path class="cls-2" d="M275.62,369.71l3.61.61a5.91,5.91,0,0,1-2.2,3,6.45,6.45,0,0,1-3.75,1A6.12,6.12,0,0,1,268,372a7.83,7.83,0,0,1-1.35-4.71,7.55,7.55,0,0,1,1.78-5.33,5.85,5.85,0,0,1,4.49-1.93,6.07,6.07,0,0,1,4.82,2q1.76,2,1.69,6.18h-9.07a3.66,3.66,0,0,0,.88,2.5,2.74,2.74,0,0,0,2.09.89,2.21,2.21,0,0,0,1.43-.46A2.86,2.86,0,0,0,275.62,369.71Zm.21-3.66a3.49,3.49,0,0,0-.81-2.39,2.61,2.61,0,0,0-3.84,0,3.34,3.34,0,0,0-.76,2.34Z" transform="translate(-128.2 -333.12)"/><path class="cls-2" d="M292.4,364.56l-3.28-.59A5.12,5.12,0,0,1,291,361a7,7,0,0,1,4-1,8.67,8.67,0,0,1,3.61.57,3.6,3.6,0,0,1,1.67,1.46,7.47,7.47,0,0,1,.48,3.24l0,4.22a14.64,14.64,0,0,0,.17,2.66,7.7,7.7,0,0,0,.65,1.83H298q-.14-.36-.35-1.07c-.06-.21-.1-.36-.13-.43a6.52,6.52,0,0,1-2,1.35,5.68,5.68,0,0,1-2.25.45,4.66,4.66,0,0,1-3.33-1.15,3.81,3.81,0,0,1-1.22-2.9,3.89,3.89,0,0,1,.55-2.07,3.61,3.61,0,0,1,1.55-1.39,12.13,12.13,0,0,1,2.88-.84,19.71,19.71,0,0,0,3.52-.89v-.36a1.87,1.87,0,0,0-.52-1.49,3.08,3.08,0,0,0-1.94-.44,2.59,2.59,0,0,0-1.51.38A2.64,2.64,0,0,0,292.4,364.56Zm4.84,2.94q-.7.23-2.2.55a6.62,6.62,0,0,0-2,.63,1.51,1.51,0,0,0-.71,1.27,1.78,1.78,0,0,0,.57,1.31,2,2,0,0,0,1.44.55,3.14,3.14,0,0,0,1.87-.64,2.26,2.26,0,0,0,.86-1.2,7.12,7.12,0,0,0,.14-1.76Z" transform="translate(-128.2 -333.12)"/><path class="cls-2" d="M310.63,360.38v2.89h-2.47v5.51a13.81,13.81,0,0,0,.07,2,.8.8,0,0,0,.32.46,1,1,0,0,0,.61.18,4.69,4.69,0,0,0,1.46-.35l.31,2.81a7.19,7.19,0,0,1-2.86.54,4.53,4.53,0,0,1-1.76-.33,2.57,2.57,0,0,1-1.15-.85,3.34,3.34,0,0,1-.51-1.41,17.56,17.56,0,0,1-.12-2.55v-6h-1.66v-2.89h1.66v-2.72l3.63-2.11v4.83Z" transform="translate(-128.2 -333.12)"/><path class="cls-3" d="M261.51,428.77c-10.73,8-26.31,12.21-39.72,12.21a71.6,71.6,0,0,1-48.52-18.61c-1-.91-.1-2.16,1.1-1.44a97.34,97.34,0,0,0,48.54,12.95,96.27,96.27,0,0,0,37-7.62c1.82-.78,3.34,1.21,1.56,2.52" transform="translate(-128.2 -333.12)"/><path class="cls-3" d="M266,423.64c-1.38-1.75-9.09-.83-12.55-.41-1.06.13-1.22-.8-.27-1.46,6.16-4.34,16.23-3.09,17.4-1.64s-.31,11.61-6.08,16.46c-.89.74-1.72.33-1.34-.63,1.29-3.26,4.21-10.55,2.83-12.33" transform="translate(-128.2 -333.12)"/><path class="cls-4" d="M253.69,391.1v-4.22a1,1,0,0,1,1.06-1.07h18.81a1.05,1.05,0,0,1,1.08,1.07v3.61c0,.61-.51,1.4-1.42,2.66l-9.73,14a20.62,20.62,0,0,1,10.72,2.33,1.88,1.88,0,0,1,1,1.65v4.49a1,1,0,0,1-1.38,1,21.56,21.56,0,0,0-19.87,0c-.65.35-1.33-.35-1.33-1v-4.28a5.11,5.11,0,0,1,.7-2.89l11.29-16.28h-9.83a1,1,0,0,1-1.08-1.06" transform="translate(-128.2 -333.12)"/><path class="cls-4" d="M185.09,417.44h-5.73a1.08,1.08,0,0,1-1-1V387a1.08,1.08,0,0,1,1.1-1.06h5.33a1.06,1.06,0,0,1,1,1v3.85h.11c1.39-3.73,4-5.46,7.52-5.46s5.83,1.74,7.43,5.46a8.43,8.43,0,0,1,14.53-2.23c1.81,2.49,1.45,6.08,1.45,9.24l0,18.63a1.07,1.07,0,0,1-1.1,1.06H210a1.07,1.07,0,0,1-1-1.06V400.74a38.39,38.39,0,0,0-.16-5.53c-.43-2-1.71-2.54-3.37-2.54a3.8,3.8,0,0,0-3.42,2.42c-.59,1.49-.53,4-.53,5.66v15.64a1.08,1.08,0,0,1-1.11,1.06H194.7a1.07,1.07,0,0,1-1-1.06V400.74c0-3.3.54-8.14-3.52-8.14s-4,4.71-4,8.14v15.64a1.07,1.07,0,0,1-1.1,1.06" transform="translate(-128.2 -333.12)"/><path class="cls-4" d="M290.89,391.29c-4.22,0-4.48,5.78-4.48,9.39s0,11.31,4.43,11.31,4.64-6.22,4.64-10a27.6,27.6,0,0,0-.85-7.83,3.6,3.6,0,0,0-3.75-2.86m-.05-6c8.49,0,13.08,7.33,13.08,16.64,0,9-5.07,16.15-13.08,16.15-8.32,0-12.87-7.32-12.87-16.45s4.59-16.34,12.87-16.34" transform="translate(-128.2 -333.12)"/><path class="cls-4" d="M314.94,417.44h-5.7a1.08,1.08,0,0,1-1-1.06V386.85a1.09,1.09,0,0,1,1.1-1h5.31a1.09,1.09,0,0,1,1,.82v4.52h.1c1.61-4,3.84-6,7.8-6a7.49,7.49,0,0,1,6.68,3.46c1.5,2.37,1.5,6.35,1.5,9.2v18.58a1.09,1.09,0,0,1-1.1.93h-5.74a1.07,1.07,0,0,1-1-.93v-16c0-3.23.38-8-3.58-8a3.74,3.74,0,0,0-3.31,2.36,13.22,13.22,0,0,0-.91,5.59v15.89a1.1,1.1,0,0,1-1.12,1.06" transform="translate(-128.2 -333.12)"/><path class="cls-4" d="M244.46,417.37a1.14,1.14,0,0,1-1.35.13,14,14,0,0,1-3.28-3.83c-3.14,3.22-5.37,4.18-9.44,4.18-4.82,0-8.56-3-8.56-9a9.78,9.78,0,0,1,6.11-9.4c3.11-1.38,7.44-1.62,10.76-2v-.75c0-1.36.12-3-.7-4.17a3.83,3.83,0,0,0-3.21-1.49,4.37,4.37,0,0,0-4.6,3.45,1.2,1.2,0,0,1-1,1.06l-5.54-.59a1,1,0,0,1-.86-1.22c1.27-6.75,7.35-8.79,12.79-8.79,2.78,0,6.43.75,8.63,2.86,2.79,2.62,2.51,6.1,2.51,9.9v9c0,2.7,1.11,3.88,2.16,5.33.36.53.45,1.15,0,1.53-1.18,1-3.25,2.81-4.4,3.82Zm-5.77-14c0,2.25.05,4.11-1.07,6.11a4.63,4.63,0,0,1-4,2.61c-2.2,0-3.49-1.68-3.49-4.18,0-4.88,4.37-5.79,8.51-5.79Z" transform="translate(-128.2 -333.12)"/><path class="cls-4" d="M169.46,417.37a1.14,1.14,0,0,1-1.35.13,13.87,13.87,0,0,1-3.28-3.83c-3.14,3.22-5.36,4.18-9.44,4.18-4.81,0-8.56-3-8.56-9a9.78,9.78,0,0,1,6.1-9.4c3.11-1.38,7.44-1.62,10.76-2v-.75c0-1.36.1-3-.7-4.17a3.82,3.82,0,0,0-3.21-1.49,4.36,4.36,0,0,0-4.6,3.45,1.21,1.21,0,0,1-1,1.06l-5.56-.59a1,1,0,0,1-.85-1.22c1.28-6.75,7.35-8.79,12.8-8.79,2.78,0,6.43.75,8.61,2.86,2.79,2.62,2.53,6.1,2.53,9.9v9c0,2.7,1.11,3.88,2.16,5.33.36.53.45,1.15,0,1.53-1.17,1-3.26,2.81-4.39,3.82Zm-5.76-14c0,2.25,0,4.11-1.07,6.11a4.66,4.66,0,0,1-4,2.61c-2.2,0-3.48-1.68-3.48-4.18,0-4.88,4.36-5.79,8.51-5.79Z" transform="translate(-128.2 -333.12)"/><path class="cls-2" d="M410.21,411.27a.54.54,0,0,1,.39-.26,2,2,0,0,1,.52.13,19,19,0,0,0,7.93,2.19c3.12,0,5.2-1.87,5.2-4.63,0-2.19-1.11-3.47-4.16-4.88-4.36-2-5.73-2.7-7.29-4a7.41,7.41,0,0,1-3-6.11c0-5.21,4.1-8.94,9.89-8.94,3.38,0,8.39,1.61,8.39,2.7,0,.13,0,.13-.13.45l-1.17,2.38a.86.86,0,0,1-.59.39,2.87,2.87,0,0,1-.52-.13,14.41,14.41,0,0,0-6.11-1.67c-3.12,0-4.94,1.61-4.94,4.3a4.25,4.25,0,0,0,1.3,3.15c.91.83.91.83,6.83,3.66,4.82,2.31,6.5,4.43,6.5,8.29,0,5.46-4.16,9.13-10.34,9.13a20.38,20.38,0,0,1-9.62-2.51c-.33-.19-.39-.32-.39-.58a.38.38,0,0,1,.07-.26Z" transform="translate(-128.2 -333.12)"/><path class="cls-2" d="M434.73,387c0-.65.07-.78.71-.78h3.45c.59,0,.72.13.72.78v29.31a1.12,1.12,0,0,1-1.11,1.13h-2.75a1.08,1.08,0,0,1-1-1.16Z" transform="translate(-128.2 -333.12)"/><path class="cls-2" d="M466.13,391.9c-.2.33-.33.46-.52.46a.79.79,0,0,1-.52-.26c-3.18-2.34-4.49-2.93-6.7-2.93-5.2,0-7.87,4.1-7.87,12.09s2.4,12.17,7.22,12.17c2.6,0,4-.59,7.67-3.19a.86.86,0,0,1,.46-.2c.2,0,.32.13.46.4l1,2.47a6,6,0,0,1,.2.65c0,.33-.33.71-1,1.24a15.63,15.63,0,0,1-9.1,3.05c-7.74,0-12.29-5.92-12.29-15.8,0-10.67,5-17.23,13.2-17.23a13.67,13.67,0,0,1,7.93,2.54c1,.71,1.43,1.17,1.43,1.63l-.07.39Z" transform="translate(-128.2 -333.12)"/><path class="cls-4" d="M376.44,395.21c0-3.68,0-9.94-8.36-9.94a8.82,8.82,0,0,0-7.53,5c-1-3.57-3.2-5-6.88-5a8.57,8.57,0,0,0-7.61,4.32v-2.54a1.06,1.06,0,0,0-1-1.05h-2.89a1.08,1.08,0,0,0-1.1,1v29.38a1.08,1.08,0,0,0,1,1.06H345a1.08,1.08,0,0,0,1.1-1V395.79c0-4.91,3.62-6.31,5.94-6.31,3.5,0,4.13,2.85,4.24,5.18v21.91a1.2,1.2,0,0,0,1.14.88h2.8a1,1,0,0,0,1.09-.79v-21c.07-4.79,3.62-6.18,5.91-6.18,3.57,0,4.16,3,4.25,5.33v21.74a1,1,0,0,0,.87.84v0h3a1,1,0,0,0,1.1-.79v-5.89h0Z" transform="translate(-128.2 -333.12)"/><path class="cls-4" d="M383,412.78a8.15,8.15,0,0,0,7.72,5c4.46,0,7.05-1.58,8.39-4.33V416a1.06,1.06,0,0,0,1,1.06h2.84a1.07,1.07,0,0,0,1.08-1V386.68a1.07,1.07,0,0,0-1-1.06h-2.84a1.07,1.07,0,0,0-1.08,1v20.65c0,4.91-5.43,6.31-7.7,6.31-3.44,0-4.06-2.85-4.17-5.18v-21.9a1.18,1.18,0,0,0-1.12-.88h-2.75a1,1,0,0,0-1.07.79v21a24.26,24.26,0,0,0,.72,5.41" transform="translate(-128.2 -333.12)"/><path class="cls-2" d="M438.89,373.16h-3.45c-.65,0-.71.12-.71.7v3.47c0,.59.13.7.72.7h3.45c.65,0,.71-.12.71-.7v-3.47c0-.58-.13-.7-.72-.7" transform="translate(-128.2 -333.12)"/><rect class="cls-5" x="212.63" y="40" width="27.32" height="4.8"/><rect class="cls-5" x="212.63" y="32.79" width="27.32" height="4.8"/><rect class="cls-5" x="212.63" y="25.59" width="27.32" height="4.8"/><rect class="cls-5" x="212.63" y="18.38" width="27.32" height="4.8"/><rect class="cls-5" x="242.32" y="40" width="27.32" height="4.8"/><rect class="cls-5" x="242.32" y="32.79" width="27.32" height="4.8"/><rect class="cls-5" x="272.05" y="40" width="27.33" height="4.8"/><rect class="cls-5" x="272.05" y="32.79" width="27.33" height="4.8"/><rect class="cls-5" x="272.05" y="25.59" width="27.33" height="4.8"/></svg>