<svg version="1" xmlns="http://www.w3.org/2000/svg" width="826.667" height="826.667" viewBox="0 0 620.000000 620.000000"><path d="M289 15.3c-.3.3-3.6.7-7.5 1-42.7 3.7-87.1 18.5-125.2 41.8-48.5 29.7-89.3 75-113 125.7-3 6.5-5.8 12.6-6.4 13.7-.5 1.1-2.7 7.2-5 13.5-7.3 20.7-13.6 48.3-15.6 69-1 10.7-1 49 0 59.2 6.8 68.1 36.8 131 85.7 179.8 47.7 47.5 108.3 76.6 176 84.5 12.1 1.4 56.2 1.5 63.5.1 1.7-.3 6.4-1 10.5-1.6 11.8-1.6 13.8-2 26.5-5 24.2-5.8 38.7-11.1 62-22.5 67.3-33.2 120.5-92.1 146.3-162 7.6-20.7 13.8-45.5 15.8-63.5.3-3 .8-6.6 1.1-8 .9-4.5 1.2-50.3.3-58-.5-4.1-1.2-10-1.5-13-4.4-38.6-23.1-88.2-46.5-123C515.2 86.3 454 42.5 384.8 24.6 371 21 358.4 18.5 349 17.4c-3-.3-6.6-.8-8-1.1-3.1-.6-51.4-1.6-52-1zm49 21.2c2.5.3 7.9 1.1 12 1.6 6.2.9 13 2.2 27 5.4 22.9 5.1 52.4 17.6 77.8 33 20 12.1 50.1 38.1 64.9 56 34.8 42.2 54.7 86.7 62.7 140.5 2.1 13.8 2.8 47.1 1.3 62.5-4.9 50.7-24 99.8-54.4 139.9-10.5 13.8-25.8 30.2-39.8 42.6-9.2 8.2-27.1 21-41 29.3-10.7 6.3-36.8 18.8-42.5 20.3-.8.2-5.3 1.7-10 3.3-7.8 2.7-15.2 4.9-19 5.6-.8.2-3.3.8-5.5 1.3-6.4 1.7-27 5.1-35.9 6-10.1.9-43.9.8-52.6-.2-9.9-1.1-24.8-3.5-32-5.2-3.6-.9-7.4-1.7-8.4-1.9-17-3.6-49.9-16.9-69.6-28.3-5.6-3.2-21.3-13.3-22-14.1-.3-.3-3.9-3.1-8-6.2-20.5-15.3-42.1-37.8-57.8-60.1-3.3-4.7-6.8-9.9-7.7-11.5-.8-1.5-3-5.1-4.7-7.8-4.5-7.3-14.2-26.9-17.8-36-10-25.2-16.2-51-18.9-79-.8-8.9-.7-45.7.3-50.5.2-1.4.7-5.2 1.1-8.5.4-3.2.9-6.8 1.1-8 .3-1.1.7-3.8 1-6 1.5-11.4 9.6-38.7 16.1-54.5 10.7-26.1 28.8-55.6 46.2-75.4 3.9-4.5 24-24.6 28.6-28.6 5.1-4.6 22.4-17.5 29.5-22.2 29.9-19.5 66.5-34.2 100.5-40.2 9.7-1.7 15.3-2.5 26-3.5 8.2-.9 44.9-.6 51.5.4z"/><path d="M148 156v10h128.5c70.7 0 128.5.2 128.5.5s-11.8 16.2-26.2 35.3c-14.4 19.1-36.4 48.2-48.8 64.7-12.4 16.5-42.6 56.5-67 89-78.2 103.9-82.1 109-83.3 110.5-.7.8-2.3 3-3.5 4.7l-2.3 3.3H472v-20H343.5c-70.7 0-128.5-.2-128.5-.5s7.6-10.6 16.8-22.8c9.3-12.2 33.4-44.3 53.7-71.2 20.3-27 47.7-63.4 61-81 13.3-17.6 40.7-54.1 61-81 20.2-27 37.2-49.6 37.8-50.3.8-.9-29-1.2-148.2-1.2H148v10z"/><path d="M300 233.2v57.1l10-13.3 10-13.3V176h-20v57.2zM234 310v10h43.8l7.1-9.5c3.9-5.2 7.1-9.7 7.1-10 0-.3-13-.5-29-.5h-29v10zM335.1 309.5c-3.9 5.2-7.1 9.7-7.1 10 0 .3 13.1.5 29 .5h29v-20h-43.8l-7.1 9.5zM309.8 343.2l-9.8 13.1V444h20v-57c0-31.4-.1-57-.2-57-.2.1-4.7 6-10 13.2z"/></svg>